<svg xmlns="http://www.w3.org/2000/svg" viewBox="0 0 96 96" fill="none" stroke="#6b4a24" stroke-width="2" stroke-linecap="round" stroke-linejoin="round">
  <path d="M47 76c-2-17 1-35 14-52"/><path d="M49 65c-11-2-19-8-25-19"/><path d="M55 51c11-1 18-7 23-16"/>
  <path d="M60 25c9 2 12 8 12 8s-9 3-15-1"/><path d="M44 44c-11-1-16-8-16-8s10-4 18 1"/>
  <path d="M53 60c10 1 15 8 15 8s-9 4-16 0"/><path d="M37 56c-10 0-16-7-16-7s8-5 17-1"/>
  <path d="M48 78c-8 0-17 2-26 7"/><path d="M49 78c8 0 17 2 25 7"/>
</svg>
