<svg xmlns="http://www.w3.org/2000/svg" viewBox="0 0 96 96" fill="none" stroke="#6b4a24" stroke-width="2" stroke-linecap="round" stroke-linejoin="round">
  <path d="M50 79c-2-21 2-44 18-62"/><path d="M52 65c13-2 22-10 27-23"/><path d="M56 47c10-3 17-11 18-21"/>
  <path d="M45 68c-13-1-23-8-30-20"/><path d="M48 51c-11-1-19-7-24-18"/>
  <path d="M69 18c9 2 13 9 13 9s-10 3-16-2"/><path d="M76 42c8 3 11 10 11 10s-9 2-15-4"/>
  <path d="M22 48c-9 2-13 8-13 8s9 3 16-2"/><path d="M26 33c-8 1-13 7-13 7s8 4 15-1"/>
</svg>
