<?xml version="1.0" encoding="UTF-8" standalone="no"?>
<!-- Created with Inkscape (http://www.inkscape.org/) -->

<svg
   width="415.10907mm"
   height="80.968475mm"
   viewBox="0 0 415.10907 80.968475"
   version="1.1"
   id="svg1"
   xml:space="preserve"
   xmlns:inkscape="http://www.inkscape.org/namespaces/inkscape"
   xmlns:sodipodi="http://sodipodi.sourceforge.net/DTD/sodipodi-0.dtd"
   xmlns="http://www.w3.org/2000/svg"
   xmlns:svg="http://www.w3.org/2000/svg"><sodipodi:namedview
     id="namedview1"
     pagecolor="#ffffff"
     bordercolor="#000000"
     borderopacity="0.25"
     inkscape:showpageshadow="2"
     inkscape:pageopacity="0.0"
     inkscape:pagecheckerboard="0"
     inkscape:deskcolor="#d1d1d1"
     inkscape:document-units="mm"><inkscape:page
       x="0"
       y="0"
       width="415.10907"
       height="80.968475"
       id="page2"
       margin="0"
       bleed="0" /></sodipodi:namedview><defs
     id="defs1" /><g
     inkscape:label="Layer 1"
     inkscape:groupmode="layer"
     id="layer1"
     transform="translate(100.46186,-360.64966)"><g
       id="g90"
       transform="translate(20.407362,199.70061)"><path
         style="fill:#000000;fill-opacity:0.46"
         d="m -95.016795,241.51831 c -3.599429,-0.99107 -7.020225,-3.40812 -8.894235,-6.28446 -1.13016,-1.73465 -2.16374,-4.23325 -2.16374,-5.2307 0,-0.56719 -0.17663,-0.66336 -2.64584,-1.44072 -5.42663,-1.70841 -10.10312,-6.83643 -11.63554,-12.75898 -0.53765,-2.07795 -0.55597,-2.65235 -0.48097,-15.08125 l 0.078,-12.92103 0.7207,-2.0355 c 2.04959,-5.78882 6.70482,-10.33789 11.98711,-11.71375 1.69745,-0.44213 1.87525,-0.61078 2.11022,-2.00154 0.20725,-1.22671 1.45699,-3.6905 2.71067,-5.34393 1.79506,-2.36746 5.163722,-4.54018 8.357782,-5.39061 1.151897,-0.3067 29.529083,-0.36409 181.335383,-0.36674 129.569065,-0.002 180.362445,0.0781 181.371875,0.2871 5.08531,1.0527 9.93142,5.61684 11.23146,10.57796 l 0.45598,1.74007 1.76038,0.45349 c 3.52099,0.90703 7.59619,3.96795 9.8963,7.4332 1.27334,1.91837 1.90297,3.37188 2.54062,5.86506 0.48028,1.87789 0.52047,2.96838 0.52047,14.12123 0,11.19509 -0.0389,12.24049 -0.52726,14.17903 -0.87855,3.48723 -2.17399,5.7271 -4.89238,8.45914 -2.5804,2.59336 -4.75868,3.94026 -7.69073,4.75545 l -1.59428,0.44325 -0.32035,1.36125 c -0.92284,3.92128 -4.25866,7.9956 -7.99375,9.76344 -1.0914,0.51656 -2.61531,1.06982 -3.38646,1.22945 -2.22137,0.45984 -361.177404,0.361 -362.851385,-0.0999 z m 363.102515,-2.19199 c 2.16883,-0.73684 4.61496,-2.34109 6.07319,-3.98298 1.35235,-1.52268 2.68496,-4.21959 3.1366,-6.34781 l 0.33869,-1.596 1.8442,-0.41647 c 4.39006,-0.9914 8.66197,-4.3944 10.72885,-8.54661 1.88103,-3.77884 1.9488,-4.42716 1.86093,-17.80299 l -0.0773,-11.77396 -0.80961,-2.26064 c -1.96182,-5.47795 -6.42226,-9.64599 -11.48828,-10.73518 l -1.98961,-0.42776 -0.46043,-1.87918 c -0.25324,-1.03356 -0.75364,-2.47809 -1.112,-3.21009 -1.48254,-3.02827 -4.94856,-5.862 -8.48174,-6.93445 -1.52885,-0.46406 -8.21481,-0.48186 -180.975005,-0.48186 H -92.713318 l -1.86307,0.58617 c -4.823769,1.51769 -8.556232,5.60852 -9.461002,10.36937 l -0.29907,1.57371 -1.7098,0.32262 c -2.64939,0.4999 -5.64853,2.13904 -7.68644,4.20091 -2.00061,2.02414 -3.198,3.92564 -4.20091,6.67119 l -0.70887,1.94061 v 12.7 c 0,12.63928 0.003,12.70886 0.62337,14.55208 1.91799,5.69854 6.39688,9.89577 11.88154,11.13436 l 1.83048,0.41337 0.31931,1.73299 c 1.00607,5.46014 5.984175,9.9902 11.803628,10.74126 0.436563,0.0563 81.279998,0.0918 179.652077,0.0788 l 178.858335,-0.0237 z m -361.540274,-1.94105 c -4.579477,-1.07771 -8.216416,-5.20332 -8.637586,-9.79816 -0.0913,-0.99641 -0.28064,-1.9108 -0.4207,-2.03199 -0.14005,-0.12118 -1.14761,-0.36183 -2.23902,-0.53478 -3.6997,-0.58627 -7.55332,-3.05803 -9.50191,-6.09464 -0.45191,-0.70425 -1.148,-2.16131 -1.54685,-3.23791 l -0.7252,-1.95745 -0.0789,-11.54525 c -0.0871,-12.73644 -0.015,-13.51922 1.54651,-16.79106 1.4521,-3.0426 4.85078,-6.09672 7.91837,-7.11561 0.7055,-0.23433 2.0339,-0.50929 2.95201,-0.61103 l 1.66928,-0.18497 0.32389,-1.93589 c 0.44532,-2.66172 0.75867,-3.50701 1.97554,-5.3293 1.348669,-2.01965 3.707159,-3.80086 6.004987,-4.53519 l 1.765443,-0.56418 162.057288,-0.0616 c 89.131512,-0.0339 169.974942,0.01 179.652092,0.0969 l 17.59478,0.15843 2.05885,0.9831 c 3.54391,1.69221 5.76232,4.61052 6.32473,8.32012 0.41791,2.75656 0.55918,2.9999 1.74162,2.9999 5.58698,0 11.3057,5.21222 12.6278,11.50938 0.56257,2.6795 0.56257,21.92674 0,24.60625 -1.23725,5.89299 -5.81562,10.38514 -11.50821,11.29149 -1.09141,0.17376 -2.11601,0.41325 -2.27691,0.53219 -0.16089,0.11894 -0.36679,1.01961 -0.45755,2.00149 -0.42313,4.57748 -4.14001,8.79416 -8.67296,9.83919 -1.48942,0.34337 -358.687931,0.33402 -360.147349,-0.009 z"
         id="path90"
         inkscape:export-filename="svg button.svg"
         inkscape:export-xdpi="96"
         inkscape:export-ydpi="96" /><path
         style="fill:#a88f62;fill-opacity:1"
         d="m -92.18201,239.87158 c -5.819453,-0.75106 -10.79756,-5.28112 -11.80363,-10.74126 l -0.31932,-1.73299 -1.83048,-0.41337 c -5.48465,-1.23859 -9.96354,-5.43582 -11.88154,-11.13436 -0.62039,-1.84322 -0.62337,-1.9128 -0.62337,-14.55208 v -12.7 l 0.70888,-1.94061 c 1.00291,-2.74555 2.2003,-4.64705 4.20091,-6.67119 2.03791,-2.06187 5.03705,-3.70101 7.68643,-4.20091 l 1.70981,-0.32262 0.29907,-1.57371 c 0.90476,-4.76085 4.637235,-8.85168 9.461004,-10.36937 l 1.86307,-0.58617 H 86.676317 c 172.760183,0 179.446143,0.0178 180.974993,0.48186 3.53318,1.07245 6.9992,3.90618 8.48174,6.93445 0.35836,0.732 0.85876,2.17653 1.112,3.21009 l 0.46043,1.87918 1.98961,0.42776 c 5.06602,1.08919 9.52646,5.25723 11.48828,10.73518 l 0.80961,2.26064 0.0773,11.77396 c 0.0879,13.37583 0.0201,14.02415 -1.86093,17.80299 -2.06688,4.15221 -6.33879,7.55521 -10.72885,8.54661 l -1.8442,0.41647 -0.33869,1.596 c -0.45164,2.12822 -1.78425,4.82513 -3.1366,6.34781 -1.45823,1.64189 -3.90436,3.24614 -6.07319,3.98298 l -1.75946,0.59777 -178.858323,0.0237 c -98.372079,0.013 -179.215514,-0.0224 -179.652077,-0.0788 z m 358.87694,-2.47428 c 4.53295,-1.04503 8.24983,-5.26171 8.67296,-9.83919 0.0908,-0.98188 0.29666,-1.88255 0.45755,-2.00149 0.1609,-0.11894 1.1855,-0.35843 2.27691,-0.53219 5.69259,-0.90635 10.27096,-5.3985 11.50821,-11.29149 0.56257,-2.67951 0.56257,-21.92675 0,-24.60625 -1.3221,-6.29716 -7.04082,-11.50938 -12.6278,-11.50938 -1.18245,0 -1.32372,-0.24334 -1.74163,-2.9999 -0.56241,-3.7096 -2.78082,-6.62791 -6.32472,-8.32012 l -2.05885,-0.9831 -17.59479,-0.15843 c -9.67714,-0.0871 -90.52057,-0.13072 -179.652075,-0.0969 l -162.057288,0.0616 -1.765443,0.56418 c -2.297828,0.73433 -4.656318,2.51554 -6.004984,4.53519 -1.21689,1.82229 -1.53023,2.66758 -1.97555,5.3293 l -0.32389,1.93589 -1.66928,0.18497 c -5.9106,0.65496 -10.65847,5.04991 -12.08079,11.18282 -0.3505,1.51136 -0.40276,3.58483 -0.33609,13.33488 l 0.079,11.54525 0.72519,1.95745 c 0.39886,1.0766 1.09494,2.53366 1.54686,3.23791 1.94858,3.03661 5.8022,5.50837 9.5019,6.09464 1.09141,0.17295 2.09897,0.4136 2.23902,0.53478 0.14005,0.12119 0.32937,1.03558 0.4207,2.03199 0.42117,4.59484 4.058116,8.72045 8.637593,9.79816 1.459418,0.34345 358.657917,0.3528 360.147337,0.009 z"
         id="path91"
         sodipodi:nodetypes="sscssscssscsscsssscsscssscssscssscsssssssscsccssscssscsssssscc" /><path
         style="fill:#392c19;fill-opacity:0.58;stroke-width:0.970044"
         d="m -90.484807,238.04727 c -5.777195,-0.7119 -10.719153,-5.00581 -11.717923,-10.18132 l -0.317,-1.64265 -1.81718,-0.39182 c -5.44483,-1.17402 -9.89118,-5.15245 -11.79526,-10.55392 -0.61589,-1.74714 -0.61885,-1.81309 -0.61885,-13.79349 v -12.03794 l 0.70373,-1.83945 c 0.99563,-2.60243 2.18433,-4.4048 4.17041,-6.32341 2.02311,-1.9544 5.00047,-3.50809 7.63061,-3.98193 l 1.6974,-0.30581 0.29691,-1.49166 c 0.89818,-4.51267 4.603548,-8.39024 9.392288,-9.82881 l 1.849541,-0.55562 H 87.074723 c 171.505667,0 178.143087,0.0169 179.660827,0.45674 3.50752,1.01655 6.94838,3.70255 8.42015,6.57296 0.35576,0.69384 0.85252,2.06306 1.10393,3.04275 l 0.45709,1.78122 1.97515,0.40545 c 5.02924,1.03241 9.45728,4.98318 11.40485,10.17555 l 0.80374,2.14281 0.0768,11.16018 c 0.0873,12.67855 0.0199,13.29307 -1.84742,16.87492 -2.05186,3.93575 -6.29275,7.16135 -10.65094,8.10108 l -1.83081,0.39475 -0.33623,1.5128 c -0.44837,2.01727 -1.77129,4.5736 -3.11382,6.0169 -1.44764,1.5563 -3.87601,3.07692 -6.02908,3.77535 l -1.7467,0.56661 -177.559519,0.0224 c -97.6577422,0.0123 -177.914125,-0.0213 -178.347517,-0.0747 z m 356.270917,-2.3453 c 4.50004,-0.99056 8.18993,-4.98742 8.60999,-9.32627 0.0901,-0.9307 0.29451,-1.78442 0.45422,-1.89715 0.15973,-0.11275 1.17688,-0.33975 2.26038,-0.50445 5.65125,-0.8591 10.19638,-5.11708 11.42464,-10.70286 0.55848,-2.53983 0.55848,-20.78371 0,-23.32353 -1.31249,-5.96889 -6.98969,-10.90939 -12.5361,-10.90939 -1.17386,0 -1.31411,-0.23066 -1.72898,-2.84351 -0.55833,-3.51622 -2.76062,-6.28241 -6.27879,-7.8864 l -2.0439,-0.93186 -17.46704,-0.15016 c -9.60686,-0.0826 -89.86323,-0.12391 -178.347505,-0.0919 l -160.880494,0.0584 -1.752623,0.53478 c -2.281142,0.69604 -4.622505,2.38439 -5.961378,4.29877 -1.208053,1.72729 -1.519118,2.52852 -1.96121,5.05149 l -0.32154,1.83496 -1.65715,0.17533 c -5.86768,0.62081 -10.58107,4.78666 -11.99307,10.59985 -0.34795,1.43258 -0.39983,3.39796 -0.33364,12.63974 l 0.0784,10.9434 0.71992,1.85541 c 0.39596,1.02047 1.08699,2.40158 1.53563,3.06912 1.93442,2.8783 5.76006,5.22121 9.4329,5.77692 1.08347,0.16394 2.08372,0.39204 2.22276,0.5069 0.13902,0.11488 0.32697,0.9816 0.41764,1.92606 0.418112,4.35531 4.028648,8.26586 8.574871,9.28738 1.44882,0.32555 356.053499,0.33441 357.532089,0.009 z"
         id="path94"
         sodipodi:nodetypes="sscssscssscsscsssscsscssscssscssscsssssssscsccssscssscsssssscc" /></g></g></svg>
